<?xml version="1.0" encoding="UTF-8" standalone="no"?>
<svg
   xmlns:dc="http://purl.org/dc/elements/1.1/"
   xmlns:cc="http://creativecommons.org/ns#"
   xmlns:rdf="http://www.w3.org/1999/02/22-rdf-syntax-ns#"
   xmlns:svg="http://www.w3.org/2000/svg"
   xmlns="http://www.w3.org/2000/svg"
   xmlns:xlink="http://www.w3.org/1999/xlink"
   xmlns:sodipodi="http://sodipodi.sourceforge.net/DTD/sodipodi-0.dtd"
   xmlns:inkscape="http://www.inkscape.org/namespaces/inkscape"
   version="1.1"
   id="Layer_1"
   x="0px"
   y="0px"
   viewBox="0 0 2000 500"
   style="enable-background:new 0 0 2000 500;"
   xml:space="preserve"
   sodipodi:docname="banner.svg"
   inkscape:version="1.0 (4035a4fb49, 2020-05-01)"><metadata
   id="metadata19"><rdf:RDF><cc:Work
       rdf:about=""><dc:format>image/svg+xml</dc:format><dc:type
         rdf:resource="http://purl.org/dc/dcmitype/StillImage" /><dc:title /></cc:Work></rdf:RDF></metadata><defs
   id="defs17"><rect
     id="rect36"
     height="203.12469"
     width="863.05017"
     y="134.19098"
     x="488.05074" /><rect
     id="rect30"
     height="107.35185"
     width="916.11542"
     y="232.53642"
     x="470.58753" /><linearGradient
     inkscape:collect="always"
     id="linearGradient26"><stop
       style="stop-color:#ff2ad4;stop-opacity:1"
       offset="0"
       id="stop22" /><stop
       style="stop-color:#ffdd55;stop-opacity:1"
       offset="1"
       id="stop24" /></linearGradient><linearGradient
     id="linearGradient16"
     inkscape:collect="always"><stop
       id="stop12"
       offset="0"
       style="stop-color:#ff00ff;stop-opacity:1" /><stop
       id="stop14"
       offset="1"
       style="stop-color:#ffdd55;stop-opacity:1" /></linearGradient><linearGradient
     gradientUnits="userSpaceOnUse"
     y2="87.088387"
     x2="87.738304"
     y1="425.04333"
     x1="427.64297"
     id="linearGradient18"
     xlink:href="#linearGradient16"
     inkscape:collect="always" /><linearGradient
     y2="71.463409"
     x2="73.951561"
     y1="464.56534"
     x1="464.40762"
     gradientUnits="userSpaceOnUse"
     id="linearGradient20"
     xlink:href="#linearGradient26"
     inkscape:collect="always" /></defs><sodipodi:namedview
   inkscape:document-rotation="0"
   pagecolor="#ffffff"
   bordercolor="#666666"
   borderopacity="1"
   objecttolerance="10"
   gridtolerance="10"
   guidetolerance="10"
   inkscape:pageopacity="0"
   inkscape:pageshadow="2"
   inkscape:window-width="3440"
   inkscape:window-height="1377"
   id="namedview15"
   showgrid="false"
   inkscape:zoom="0.76933333"
   inkscape:cx="541.22294"
   inkscape:cy="179.24955"
   inkscape:window-x="-8"
   inkscape:window-y="-8"
   inkscape:window-maximized="1"
   inkscape:current-layer="layer2" />
<style
   type="text/css"
   id="style2">
	.st0{fill:#2B303C;}
	.st1{fill:#2B303C;}
	.st2{fill:#FFFFFF;}
</style>
<rect
   y="0"
   x="0"
   style="fill:#2b303c;fill-opacity:1"
   class="st0"
   width="2000"
   height="500"
   id="rect4" />
<g
   id="g8">
	<path
   class="st1"
   d="M337.8,434.4H195.9c-60.7,0-110.1-49.3-110.1-109.8V194.5c0-57.8,47.2-104.8,105.1-104.8   c28.3,0,54,11.2,73,29.4c18-18.1,42.9-29.4,70.4-29.4c54.6,0,98.9,44.2,98.9,98.6v46.4h-60.7v-46.4c0-21-17.2-38.1-38.3-38.1   c-21.1,0-38.3,17.1-38.3,38.1v14.3c0,25.1,21.7,36.5,41.8,36.5c25.4,0,50.4,11.5,68.5,31.6c17.1,18.9,26.8,43.9,26.8,68.7   C433.2,391.8,390.4,434.4,337.8,434.4z M190.9,150.2c-24.5,0-44.4,19.9-44.4,44.3v130.2c0,27.2,22.2,49.3,49.5,49.3h141.9   c19.1,0,34.7-15.5,34.7-34.6c0-20.4-16.9-39.7-34.7-39.7c-27.1,0-52.5-9.3-71.3-26.3c-20.1-18.1-31.2-43.2-31.2-70.8v-8.1   C235.3,170.1,215.4,150.2,190.9,150.2z"
   id="path6" />
</g>

<text
   transform="translate(17.463209,103.86014)"
   style="font-style:normal;font-weight:normal;font-size:66.6667px;line-height:1.25;font-family:sans-serif;white-space:pre;shape-inside:url(#rect30);fill:#f9f9f9;fill-opacity:1;stroke:none;"
   id="text28"
   xml:space="preserve"><tspan
     x="470.58789"
     y="293.35916"><tspan
       style="font-style:normal;font-variant:normal;font-weight:normal;font-stretch:normal;font-size:66.6667px;font-family:'Segoe UI';-inkscape-font-specification:'Segoe UI';fill:#e6e6e6">Synchronization made easy</tspan></tspan></text><text
   transform="translate(-9.1911627,9.1528992)"
   style="font-style:normal;font-variant:normal;font-weight:normal;font-stretch:normal;font-size:160px;line-height:1.25;font-family:'Segoe UI';-inkscape-font-specification:'Segoe UI';white-space:pre;shape-inside:url(#rect36);fill:#000000;fill-opacity:1;stroke:none;"
   id="text34"
   xml:space="preserve"><tspan
     x="488.05078"
     y="290.32187"><tspan
       style="font-style:normal;font-variant:normal;font-weight:normal;font-stretch:normal;font-size:173.333px;font-family:'Segoe UI';-inkscape-font-specification:'Segoe UI';fill:#ececec">MonoSync</tspan></tspan></text><g
   inkscape:label="Back"
   id="layer1"
   inkscape:groupmode="layer" /><g
   inkscape:label="Front"
   id="layer2"
   inkscape:groupmode="layer"><g
     style="enable-background:new 0 0 2000 500;fill-opacity:1;fill:url(#linearGradient18)"
     id="g12">
	<path
   style="fill-opacity:1;fill:url(#linearGradient20)"
   class="st2"
   d="M334.8,428.3H192.1c-61.1,0-110.7-49.7-110.7-110.7V186.2C81.3,128,128.8,80.6,187,80.6   c28.5,0,54.3,11.3,73.4,29.7c18.1-18.3,43.1-29.7,70.8-29.7c54.8,0,99.5,44.6,99.5,99.5v46.8h-61V180c0-21.2-17.3-38.5-38.5-38.5   c-21.2,0-38.5,17.3-38.5,38.5v14.4c0,25.3,21.8,36.9,42.1,36.9c25.6,0,50.7,11.6,68.9,31.8c17.2,19,27,44.3,27,69.2   C430.7,385.2,387.7,428.3,334.8,428.3z M187,141.6c-24.6,0-44.7,20-44.7,44.7v131.3c0,27.4,22.3,49.7,49.7,49.7h142.7   c19.2,0,34.9-15.6,34.9-34.9c0-20.6-17-40.1-34.9-40.1c-27.3,0-52.8-9.4-71.7-26.5c-20.2-18.2-31.3-43.6-31.3-71.4v-8.2   C231.7,161.6,211.7,141.6,187,141.6z"
   id="path10" />
</g></g></svg>
