<?xml version="1.0" encoding="UTF-8" standalone="no"?>
<svg
   xmlns:dc="http://purl.org/dc/elements/1.1/"
   xmlns:cc="http://creativecommons.org/ns#"
   xmlns:rdf="http://www.w3.org/1999/02/22-rdf-syntax-ns#"
   xmlns:svg="http://www.w3.org/2000/svg"
   xmlns="http://www.w3.org/2000/svg"
   xmlns:xlink="http://www.w3.org/1999/xlink"
   xmlns:sodipodi="http://sodipodi.sourceforge.net/DTD/sodipodi-0.dtd"
   xmlns:inkscape="http://www.inkscape.org/namespaces/inkscape"
   inkscape:version="1.0 (4035a4fb49, 2020-05-01)"
   sodipodi:docname="logo.svg"
   xml:space="preserve"
   style="enable-background:new 0 0 512 512;"
   viewBox="0 0 512 512"
   y="0px"
   x="0px"
   id="Layer_1"
   version="1.1"><metadata
   id="metadata19"><rdf:RDF><cc:Work
       rdf:about=""><dc:format>image/svg+xml</dc:format><dc:type
         rdf:resource="http://purl.org/dc/dcmitype/StillImage" /><dc:title /></cc:Work></rdf:RDF></metadata><defs
   id="defs17"><rect
     x="488.05074"
     y="134.19098"
     width="863.05017"
     height="203.12469"
     id="rect36" /><rect
     x="470.58753"
     y="232.53642"
     width="916.11542"
     height="107.35185"
     id="rect30" /><linearGradient
     id="linearGradient26"
     inkscape:collect="always"><stop
       id="stop22"
       offset="0"
       style="stop-color:#ff2ad4;stop-opacity:1" /><stop
       id="stop24"
       offset="1"
       style="stop-color:#ffdd55;stop-opacity:1" /></linearGradient><linearGradient
     inkscape:collect="always"
     id="linearGradient16"><stop
       style="stop-color:#ff00ff;stop-opacity:1"
       offset="0"
       id="stop12" /><stop
       style="stop-color:#ffdd55;stop-opacity:1"
       offset="1"
       id="stop14" /></linearGradient><linearGradient
     inkscape:collect="always"
     xlink:href="#linearGradient16"
     id="linearGradient18"
     x1="427.64297"
     y1="425.04333"
     x2="87.738304"
     y2="87.088387"
     gradientUnits="userSpaceOnUse" /><linearGradient
     inkscape:collect="always"
     xlink:href="#linearGradient26"
     id="linearGradient20"
     gradientUnits="userSpaceOnUse"
     x1="464.40762"
     y1="464.56534"
     x2="73.951561"
     y2="71.463409" /></defs><sodipodi:namedview
   inkscape:current-layer="layer2"
   inkscape:window-maximized="1"
   inkscape:window-y="-8"
   inkscape:window-x="-8"
   inkscape:cy="179.24955"
   inkscape:cx="541.22294"
   inkscape:zoom="0.76933333"
   showgrid="false"
   id="namedview15"
   inkscape:window-height="1377"
   inkscape:window-width="3440"
   inkscape:pageshadow="2"
   inkscape:pageopacity="0"
   guidetolerance="10"
   gridtolerance="10"
   objecttolerance="10"
   borderopacity="1"
   bordercolor="#666666"
   pagecolor="#ffffff"
   inkscape:document-rotation="0" />
<style
   id="style2"
   type="text/css">
	.st0{fill:#2B303C;}
	.st1{fill:#2B303C;}
	.st2{fill:#FFFFFF;}
</style>
<rect
   id="rect4"
   height="512"
   width="512"
   class="st0"
   style="fill:#2b303c;fill-opacity:1"
   x="0"
   y="0" />
<g
   id="g8">
	<path
   id="path6"
   d="M337.8,434.4H195.9c-60.7,0-110.1-49.3-110.1-109.8V194.5c0-57.8,47.2-104.8,105.1-104.8   c28.3,0,54,11.2,73,29.4c18-18.1,42.9-29.4,70.4-29.4c54.6,0,98.9,44.2,98.9,98.6v46.4h-60.7v-46.4c0-21-17.2-38.1-38.3-38.1   c-21.1,0-38.3,17.1-38.3,38.1v14.3c0,25.1,21.7,36.5,41.8,36.5c25.4,0,50.4,11.5,68.5,31.6c17.1,18.9,26.8,43.9,26.8,68.7   C433.2,391.8,390.4,434.4,337.8,434.4z M190.9,150.2c-24.5,0-44.4,19.9-44.4,44.3v130.2c0,27.2,22.2,49.3,49.5,49.3h141.9   c19.1,0,34.7-15.5,34.7-34.6c0-20.4-16.9-39.7-34.7-39.7c-27.1,0-52.5-9.3-71.3-26.3c-20.1-18.1-31.2-43.2-31.2-70.8v-8.1   C235.3,170.1,215.4,150.2,190.9,150.2z"
   class="st1" />
</g>

<g
   inkscape:groupmode="layer"
   id="layer1"
   inkscape:label="Back" /><g
   inkscape:groupmode="layer"
   id="layer2"
   inkscape:label="Front"><g
     transform="matrix(1.0380952,0,0,1.0350877,-9.754273,-8.9280702)"
     id="g12"
     style="fill:url(#linearGradient18);fill-opacity:1">
	<path
   id="path10"
   d="M 334.8,428.3 H 192.1 C 131,428.3 81.4,378.6 81.4,317.6 V 186.2 C 81.3,128 128.8,80.6 187,80.6 c 28.5,0 54.3,11.3 73.4,29.7 18.1,-18.3 43.1,-29.7 70.8,-29.7 54.8,0 99.5,44.6 99.5,99.5 v 46.8 h -61 V 180 c 0,-21.2 -17.3,-38.5 -38.5,-38.5 -21.2,0 -38.5,17.3 -38.5,38.5 v 14.4 c 0,25.3 21.8,36.9 42.1,36.9 25.6,0 50.7,11.6 68.9,31.8 17.2,19 27,44.3 27,69.2 0,52.9 -43,96 -95.9,96 z M 187,141.6 c -24.6,0 -44.7,20 -44.7,44.7 v 131.3 c 0,27.4 22.3,49.7 49.7,49.7 h 142.7 c 19.2,0 34.9,-15.6 34.9,-34.9 0,-20.6 -17,-40.1 -34.9,-40.1 -27.3,0 -52.8,-9.4 -71.7,-26.5 -20.2,-18.2 -31.3,-43.6 -31.3,-71.4 v -8.2 c 0,-24.6 -20,-44.6 -44.7,-44.6 z"
   class="st2"
   style="fill:url(#linearGradient20);fill-opacity:1" />
</g></g></svg>
