<?xml version="1.0" encoding="UTF-8" standalone="no"?>
<svg
   xmlns:dc="http://purl.org/dc/elements/1.1/"
   xmlns:cc="http://creativecommons.org/ns#"
   xmlns:rdf="http://www.w3.org/1999/02/22-rdf-syntax-ns#"
   xmlns:svg="http://www.w3.org/2000/svg"
   xmlns="http://www.w3.org/2000/svg"
   xmlns:sodipodi="http://sodipodi.sourceforge.net/DTD/sodipodi-0.dtd"
   xmlns:inkscape="http://www.inkscape.org/namespaces/inkscape"
   inkscape:version="1.0 (4035a4fb49, 2020-05-01)"
   height="449.60001"
   width="449.60001"
   sodipodi:docname="monogame.svg"
   xml:space="preserve"
   viewBox="0 0 449.6 449.59999"
   y="0px"
   x="0px"
   id="Í_xBC__xB2_ã_x5F_1"
   version="1.1"><metadata
   id="metadata41"><rdf:RDF><cc:Work
       rdf:about=""><dc:format>image/svg+xml</dc:format><dc:type
         rdf:resource="http://purl.org/dc/dcmitype/StillImage" /><dc:title></dc:title></cc:Work></rdf:RDF></metadata><defs
   id="defs39" /><sodipodi:namedview
   inkscape:document-rotation="0"
   inkscape:current-layer="g22"
   inkscape:window-maximized="1"
   inkscape:window-y="-8"
   inkscape:window-x="-8"
   inkscape:cy="176.34999"
   inkscape:cx="-72.998311"
   inkscape:zoom="0.40417878"
   showgrid="false"
   id="namedview37"
   inkscape:window-height="1377"
   inkscape:window-width="3440"
   inkscape:pageshadow="2"
   inkscape:pageopacity="0"
   guidetolerance="10"
   gridtolerance="10"
   objecttolerance="10"
   borderopacity="1"
   bordercolor="#666666"
   pagecolor="#ffffff" />
<g
   transform="translate(-72.2,-18.7)"
   id="g22">
	
	<path
   style="fill:#e73c00"
   inkscape:connector-curvature="0"
   id="path20"
   d="M 521.8,212.8 V 151.4 C 521.8,78.2 462.3,18.7 389.1,18.7 353.4,18.7 320.9,32.9 297,56 273.1,33 240.6,18.7 204.9,18.7 131.7,18.7 72.2,78.3 72.2,151.4 v 184.2 c 0,73.2 59.5,132.7 132.7,132.7 h 184.2 c 73.2,0 132.7,-59.5 132.7,-132.7 V 246.4 H 256.4 v 81.2 h 184.2 v 8 c 0,28.4 -23.1,51.5 -51.5,51.5 H 204.9 c -28.4,0 -51.5,-23.1 -51.5,-51.5 V 151.4 c 0,-28.4 23.1,-51.5 51.5,-51.5 28.4,0 51.5,23.1 51.5,51.5 v 61.4 h 81.2 v -61.4 c 0,-28.4 23.1,-51.5 51.5,-51.5 28.4,0 51.5,23.1 51.5,51.5 v 61.4 z" />
</g>
<g
   transform="translate(-72.2,-18.7)"
   id="g24">
</g>
<g
   transform="translate(-72.2,-18.7)"
   id="g26">
</g>
<g
   transform="translate(-72.2,-18.7)"
   id="g28">
</g>
<g
   transform="translate(-72.2,-18.7)"
   id="g30">
</g>
<g
   transform="translate(-72.2,-18.7)"
   id="g32">
</g>
<g
   transform="translate(-72.2,-18.7)"
   id="g34">
</g>
</svg>
